<?xml version="1.0" encoding="utf-8"?>
<!-- Generator: Adobe Illustrator 18.1.1, SVG Export Plug-In . SVG Version: 6.00 Build 0)  -->
<!DOCTYPE svg PUBLIC "-//W3C//DTD SVG 1.1//EN" "http://www.w3.org/Graphics/SVG/1.1/DTD/svg11.dtd">
<svg xmlns="http://www.w3.org/2000/svg" xmlns:xlink="http://www.w3.org/1999/xlink" version="1.1" x="0px" y="0px" width="38px" height="38px" viewBox="0 0 100 125" enable-background="new 0 0 100 100" xml:space="preserve"><g><g><path d="M83.75,11.187h-67.5c-7.443,0-13.501,6.058-13.501,13.501v50.625c0,7.443,6.058,13.501,13.501,13.501h67.5    c7.443,0,13.501-6.058,13.501-13.501V24.688C97.251,17.244,91.193,11.187,83.75,11.187z M92.749,24.688    c0,0.77-0.103,1.523-0.288,2.251c-0.547,2.119-1.854,3.994-3.726,5.244L67.461,46.367l-1.875,1.248l-1.87,1.247l-8.73,5.82    c-2.954,1.97-7.017,1.97-9.971,0l-8.73-5.82l-1.87-1.247l-1.875-1.248L11.265,32.183c-1.872-1.25-3.179-3.125-3.726-5.244    c-0.186-0.728-0.288-1.481-0.288-2.251c0-0.781,0.132-1.525,0.317-2.251c1.006-3.87,4.502-6.748,8.682-6.748h67.5    c4.18,0,7.676,2.878,8.682,6.748C92.617,23.162,92.749,23.906,92.749,24.688z M83.75,84.312h-67.5c-1.639,0-3.154-0.472-4.48-1.24    l21.893-30.547l8.857,5.903c2.219,1.479,4.805,2.261,7.48,2.261s5.262-0.781,7.48-2.261l8.857-5.903L88.23,83.071    C86.904,83.84,85.389,84.312,83.75,84.312z M8.77,35.928l21.147,14.097L8.53,79.865c-0.794-1.34-1.279-2.885-1.279-4.553V34.734    C7.727,35.161,8.228,35.566,8.77,35.928z M92.749,75.312c0,1.668-0.485,3.213-1.279,4.553L70.083,50.024L91.23,35.928    c0.542-0.361,1.043-0.767,1.519-1.193V75.312z"/></g></g></svg>